<svg height="249.947" width="249.947" xmlns="http://www.w3.org/2000/svg"><path d="m125.02 50.833a2.647 2.647 0 0 0 2.636-2.635v-45.598a2.636 2.636 0 0 0 -5.271 0v45.6a2.69 2.69 0 0 0 2.635 2.633zm-19.19 2.514a2.646 2.646 0 0 0 1.863-3.228l-11.8-44.04a2.636 2.636 0 0 0 -5.093 1.364l11.8 44.041a2.69 2.69 0 0 0 3.23 1.863zm-17.886 7.396a2.649 2.649 0 0 0 .965-3.6l-22.8-39.485a2.635 2.635 0 0 0 -4.564 2.635l22.8 39.486a2.691 2.691 0 0 0 3.599.964zm-15.363 11.772a2.647 2.647 0 0 0 0-3.727l-32.24-32.24a2.636 2.636 0 0 0 -3.727 3.727l32.24 32.24a2.69 2.69 0 0 0 3.727 0zm-11.791 15.348a2.649 2.649 0 0 0 -.965-3.6l-39.486-22.8a2.636 2.636 0 0 0 -2.639 4.567l39.485 22.8a2.692 2.692 0 0 0 3.605-.967zm-7.418 17.876a2.648 2.648 0 0 0 -1.864-3.228l-44.041-11.8a2.635 2.635 0 0 0 -1.367 5.089l44.041 11.8a2.691 2.691 0 0 0 3.231-1.861zm-2.539 19.187a2.647 2.647 0 0 0 -2.635-2.635h-45.598a2.636 2.636 0 0 0 0 5.271h45.6a2.69 2.69 0 0 0 2.633-2.636zm2.514 19.191a2.648 2.648 0 0 0 -3.228-1.864l-44.04 11.8a2.635 2.635 0 0 0 1.364 5.091l44.041-11.8a2.69 2.69 0 0 0 1.863-3.227zm7.396 17.883a2.648 2.648 0 0 0 -3.6-.965l-39.485 22.8a2.636 2.636 0 0 0 2.635 4.565l39.486-22.8a2.69 2.69 0 0 0 .964-3.6zm11.772 15.365a2.647 2.647 0 0 0 -3.727 0l-32.24 32.24a2.636 2.636 0 0 0 3.727 3.727l32.24-32.24a2.69 2.69 0 0 0 0-3.727zm15.348 11.792a2.648 2.648 0 0 0 -3.6.965l-22.8 39.486a2.636 2.636 0 0 0 4.565 2.635l22.8-39.486a2.691 2.691 0 0 0 -.965-3.6zm17.876 7.418a2.648 2.648 0 0 0 -3.228 1.864l-11.8 44.04a2.636 2.636 0 0 0 5.091 1.365l11.798-44.044a2.691 2.691 0 0 0 -1.861-3.225zm19.187 2.538a2.648 2.648 0 0 0 -2.635 2.636v45.594a2.636 2.636 0 0 0 5.271 0v-45.594a2.691 2.691 0 0 0 -2.636-2.636zm19.191-2.513a2.648 2.648 0 0 0 -1.864 3.228l11.8 44.041a2.635 2.635 0 0 0 5.091-1.364l-11.8-44.041a2.692 2.692 0 0 0 -3.227-1.864zm17.883-7.4a2.647 2.647 0 0 0 -.965 3.6l22.8 39.486a2.636 2.636 0 0 0 4.565-2.636l-22.8-39.485a2.69 2.69 0 0 0 -3.6-.965zm15.365-11.769a2.648 2.648 0 0 0 0 3.728l32.24 32.24a2.636 2.636 0 0 0 3.727-3.728l-32.24-32.24a2.691 2.691 0 0 0 -3.727 0zm11.792-15.347a2.647 2.647 0 0 0 .965 3.6l39.486 22.8a2.636 2.636 0 0 0 2.635-4.565l-39.486-22.8a2.69 2.69 0 0 0 -3.6.965zm7.418-17.877a2.648 2.648 0 0 0 1.864 3.228l44.04 11.8a2.636 2.636 0 0 0 1.365-5.091l-44.041-11.8a2.691 2.691 0 0 0 -3.228 1.863zm2.538-19.187a2.649 2.649 0 0 0 2.636 2.636h45.594a2.636 2.636 0 0 0 0-5.271h-45.594a2.69 2.69 0 0 0 -2.636 2.635zm-2.513-19.19a2.647 2.647 0 0 0 3.228 1.863l44.041-11.8a2.636 2.636 0 0 0 -1.369-5.093l-44.041 11.8a2.691 2.691 0 0 0 -1.859 3.23zm-7.4-17.886a2.648 2.648 0 0 0 3.6.965l39.486-22.8a2.635 2.635 0 0 0 -2.636-4.564l-39.485 22.8a2.69 2.69 0 0 0 -.965 3.599zm-11.769-15.363a2.648 2.648 0 0 0 3.728 0l32.24-32.24a2.636 2.636 0 0 0 -3.728-3.727l-32.24 32.24a2.691 2.691 0 0 0 0 3.727zm-15.347-11.791a2.648 2.648 0 0 0 3.6-.965l22.8-39.486a2.636 2.636 0 0 0 -4.565-2.635l-22.8 39.485a2.691 2.691 0 0 0 .965 3.601zm-17.877-7.418a2.648 2.648 0 0 0 3.228-1.864l11.8-44.041a2.635 2.635 0 0 0 -5.09-1.367l-11.8 44.041a2.691 2.691 0 0 0 1.862 3.231zm-5.083 90.12a2.649 2.649 0 0 0 -.486 3.7l27.756 36.172a2.636 2.636 0 0 0 4.182-3.209l-27.756-36.176a2.692 2.692 0 0 0 -3.696-.487zm4.311-4.292a2.647 2.647 0 0 0 .487 3.695l36.172 27.756a2.636 2.636 0 0 0 3.209-4.182l-36.172-27.756a2.691 2.691 0 0 0 -3.696.487zm3.053-5.264a2.647 2.647 0 0 0 1.426 3.443l42.124 17.448a2.635 2.635 0 0 0 2.017-4.869l-42.123-17.449a2.691 2.691 0 0 0 -3.444 1.427zm-43.065-.087a2.648 2.648 0 0 0 -3.444-1.426l-42.124 17.448a2.636 2.636 0 0 0 2.018 4.87l42.127-17.448a2.692 2.692 0 0 0 1.423-3.444zm3.031 5.275a2.647 2.647 0 0 0 -3.695-.486l-36.173 27.756a2.636 2.636 0 0 0 3.209 4.182l36.173-27.756a2.692 2.692 0 0 0 .486-3.696zm4.294 4.311a2.648 2.648 0 0 0 -3.7.487l-27.748 36.172a2.636 2.636 0 0 0 4.182 3.209l27.756-36.172a2.691 2.691 0 0 0 -.49-3.696zm5.263 3.053a2.649 2.649 0 0 0 -3.444 1.426l-17.448 42.124a2.636 2.636 0 0 0 4.87 2.017l17.448-42.123a2.69 2.69 0 0 0 -1.426-3.444zm5.874 1.587a2.647 2.647 0 0 0 -2.957 2.269l-5.952 45.2a2.636 2.636 0 0 0 5.226.688l5.952-45.2a2.691 2.691 0 0 0 -2.269-2.957zm6.084.012a2.647 2.647 0 0 0 -2.269 2.957l5.951 45.2a2.636 2.636 0 0 0 5.226-.688l-5.951-45.2a2.691 2.691 0 0 0 -2.957-2.269zm5.88-1.563a2.647 2.647 0 0 0 -1.426 3.443l17.448 42.124a2.636 2.636 0 0 0 4.87-2.017l-17.448-42.124a2.691 2.691 0 0 0 -3.444-1.426zm14.226-18.462a2.647 2.647 0 0 0 2.269 2.957l45.2 5.951a2.636 2.636 0 0 0 .688-5.226l-45.2-5.951a2.69 2.69 0 0 0 -2.957 2.269zm.012-6.084a2.648 2.648 0 0 0 2.957 2.269l45.2-5.952a2.636 2.636 0 0 0 -.688-5.226l-45.2 5.952a2.69 2.69 0 0 0 -2.269 2.957zm-1.563-5.878a2.648 2.648 0 0 0 3.444 1.427l42.123-17.448a2.636 2.636 0 0 0 -2.017-4.87l-42.124 17.445a2.69 2.69 0 0 0 -1.426 3.446zm-3.032-5.278a2.648 2.648 0 0 0 3.7.487l36.168-27.756a2.636 2.636 0 0 0 -3.209-4.182l-36.172 27.756a2.691 2.691 0 0 0 -.487 3.695zm-4.292-4.311a2.647 2.647 0 0 0 3.695-.486l27.755-36.173a2.636 2.636 0 0 0 -4.182-3.208l-27.756 36.172a2.69 2.69 0 0 0 .488 3.695zm-5.264-3.053a2.646 2.646 0 0 0 3.443-1.426l17.448-42.124a2.635 2.635 0 0 0 -4.869-2.017l-17.449 42.124a2.69 2.69 0 0 0 1.427 3.443zm-11.958-1.598a2.648 2.648 0 0 0 2.269-2.957l-5.947-45.203a2.636 2.636 0 0 0 -5.226.688l5.952 45.2a2.69 2.69 0 0 0 2.952 2.272zm-5.878 1.563a2.648 2.648 0 0 0 1.427-3.444l-17.451-42.124a2.636 2.636 0 0 0 -4.87 2.018l17.448 42.127a2.691 2.691 0 0 0 3.446 1.423zm-5.278 3.031a2.647 2.647 0 0 0 .487-3.695l-27.756-36.173a2.636 2.636 0 0 0 -4.182 3.214l27.756 36.173a2.691 2.691 0 0 0 3.695.481zm-4.311 4.294a2.648 2.648 0 0 0 -.486-3.7l-36.173-27.748a2.636 2.636 0 0 0 -3.208 4.182l36.172 27.756a2.69 2.69 0 0 0 3.695-.49zm-3.053 5.263a2.648 2.648 0 0 0 -1.426-3.444l-42.124-17.448a2.636 2.636 0 0 0 -2.017 4.87l42.124 17.448a2.689 2.689 0 0 0 3.443-1.426zm-1.586 5.874a2.647 2.647 0 0 0 -2.269-2.957l-45.2-5.952a2.636 2.636 0 0 0 -.688 5.226l45.2 5.952a2.691 2.691 0 0 0 2.957-2.269zm-.012 6.084a2.647 2.647 0 0 0 -2.96-2.269l-45.2 5.951a2.636 2.636 0 0 0 .688 5.226l45.2-5.951a2.691 2.691 0 0 0 2.272-2.957zm26.202-26.097a2.647 2.647 0 0 0 2.957-2.269l5.951-45.2a2.636 2.636 0 0 0 -5.226-.688l-5.951 45.2a2.691 2.691 0 0 0 2.269 2.957z" fill="black"/></svg>
